<?xml version="1.0" encoding="utf-8"?>
<!-- Generator: Adobe Illustrator 18.1.0, SVG Export Plug-In . SVG Version: 6.00 Build 0)  -->
<svg version="1.1" id="Calque_1" xmlns="http://www.w3.org/2000/svg" xmlns:xlink="http://www.w3.org/1999/xlink" x="0px" y="0px"
	 viewBox="0 0 113.4 113.4" enable-background="new 0 0 113.4 113.4" xml:space="preserve">
<path fill="#010202" d="M49.1,78.8c3.3,2.3,7.4,3.1,11.4,2.4c0.1,0,0.3-0.1,0.4-0.1c0,0.3,0.1,0.7,0.1,1c0.2,1.2,0.3,2.4,0.3,3.5
	c0,1.2-0.5,2.4-1.3,3.2c-0.5,0.5-1.2,0.8-2,1c0.1-0.3,0.1-0.7,0.1-1c0-1.2-0.5-2.4-1.3-3.2c-0.9-0.9-2-1.3-3.2-1.3s-2.4,0.5-3.2,1.3
	c-0.9,0.9-1.3,2-1.3,3.2c0,1.2,0.5,2.3,1.3,3.1c0,0,0,0,0,0.1c1.6,1.6,3.9,2.5,6.4,2.5s4.8-0.9,6.4-2.5c1.7-1.7,2.7-4,2.7-6.4
	c0-1.4-0.2-2.8-0.3-4.1c-0.1-0.4-0.1-0.8-0.2-1.2c0-0.3-0.1-0.6-0.1-0.9c2-1.1,3.6-2.7,5-4.6c1.9-2.8,2.6-6.1,2-9.4
	c-0.6-3.3-2.5-6.2-5.3-8.1c-1.6-1.1-3.6-1.7-5.6-1.8c-0.6-3.6-1.3-7.5-1.9-11.7c4.2-4.4,7.8-9.7,7.9-16.2c0-3.6-0.4-8-3.8-12.7
	c-0.7-0.9-1.9-1.2-2.9-0.7c-6.4,3.4-8.3,12.3-5.9,28c-1.1,1.1-2.2,2.2-3.3,3.2c-3,2.9-5.7,5.3-7,7.9C38.6,61.7,40.7,73.1,49.1,78.8z
	 M64.3,61.1c0.1,0.1,0.2,0.2,0.3,0.2C64.5,61.2,64.4,61.1,64.3,61.1c1.8,1.2,3,3,3.4,5.2c0.6,3.2-0.8,6.2-3.2,8.2
	c-0.5-2.8-1.1-6.3-1.8-10.4c-0.2-1.2-0.4-2.5-0.7-3.8C62.8,60.3,63.6,60.6,64.3,61.1C64.2,61,64.1,60.9,64.3,61.1z M64.9,61.5
	C65,61.5,65,61.5,64.9,61.5L64.9,61.5z M60.9,19.6c1.4,2.7,1.7,5.2,1.7,8c0,3.8-1.7,7.2-4.2,10.3C57.4,28.6,58.2,22.5,60.9,19.6z
	 M48,55.8c0.1-0.1,0.1-0.2,0.2-0.3c0.9-1.9,3.4-4.2,6.1-6.7c0.4-0.3,0.7-0.7,1.1-1c0.5,2.9,0.9,5.7,1.4,8.3c-2.3,0.7-4.3,2.1-5.7,4
	c-1.3,2-1.8,4.3-1.4,6.6c0.4,2.3,1.8,4.3,3.7,5.7c1,0.7,2.4,0.4,3.2-0.6c0.7-1,0.4-2.4-0.6-3.2c-1-0.7-1.6-1.6-1.8-2.8
	c-0.2-1.1,0-2.3,0.7-3.2c0.6-0.9,1.6-1.6,2.7-2c0.2,1.4,0.5,2.8,0.7,4.1c0.8,4.7,1.5,8.7,2,11.8c-0.2,0-0.4,0.1-0.6,0.1
	c-2.8,0.5-5.6-0.1-8-1.7C45.3,70.7,43.7,62.1,48,55.8z"/>
</svg>
