<?xml version="1.0" encoding="utf-8"?>
<!-- Generator: Adobe Illustrator 18.1.0, SVG Export Plug-In . SVG Version: 6.00 Build 0)  -->
<svg version="1.1" id="Calque_1" xmlns="http://www.w3.org/2000/svg" xmlns:xlink="http://www.w3.org/1999/xlink" x="0px" y="0px"
	 viewBox="0 0 113.4 113.4" enable-background="new 0 0 113.4 113.4" xml:space="preserve">
<polygon fill="#FFFFFF" points="23.3,102.7 64.9,102.9 66.3,98.5 78.8,92.8 86.6,90.9 89.4,88.3 87.7,83.7 88.3,80 91.5,76 
	89.8,70.3 94.9,67.8 94.9,64 86.4,48.9 87.9,39.2 84.1,30.1 73.3,19.2 60.4,13.5 45.3,13.5 30.7,21.4 21.8,33.6 19.1,46.2 
	25.4,63.1 33.7,77.5 33.9,84.1 31.3,90.8 "/>
<path fill="#010202" d="M72.4,64.9c1,0,1.9-0.8,1.9-1.9c0-1-0.8-1.9-1.9-1.9c-1.6,0-3.1-0.4-4.6-1c4.8-5.4,2.6-16.9-1.6-21.1
	c-4.6-4.6-10.4-5.8-15.4-6.9c-4.4-0.9-8.3-1.7-11.1-4.5c-0.5-0.5-1.3-0.7-2.1-0.4c-0.7,0.3-1.2,1-1.2,1.7c0,12.7,4.1,25.7,10.1,31.6
	c2.9,2.9,6.7,4.3,10.4,4.3c2.6,0,5.3-0.7,7.6-2.1C67.2,64.1,69.8,64.9,72.4,64.9z M97,66.8c0-2.7-5.5-12.6-8.3-17.3
	c0.3-1.4,0.7-4.5,0.7-9.1c0-8.1-10.7-28.3-35.9-28.3c-24.8,0-35.9,18.8-35.9,32.1c0,9.4,5.6,19.1,10.1,26.9
	c2.6,4.5,5.1,8.8,5.1,10.9c0,4.8-7.8,14.3-10.8,17.6c-0.7,0.8-0.7,2,0.1,2.7c0.4,0.3,0.8,0.5,1.3,0.5c0.5,0,1-0.2,1.4-0.6
	c1.2-1.3,11.8-13,11.8-20.2c0-3.2-2.5-7.4-5.6-12.8c-4.3-7.4-9.5-16.6-9.5-25c0-9.2,7.9-28.3,32.1-28.3c24.1,0,32.1,19.4,32.1,24.6
	c0,5.8-0.8,9-0.8,9c-0.1,0.5,0,1,0.2,1.4c3.8,6.5,8,14.5,8.1,16c-0.2,0.5-2.1,1.5-4.2,2c-0.5,0.1-1,0.4-1.3,0.9
	c-0.3,0.5-0.3,1-0.2,1.5l1.5,4.6l-1.1,1.1c-0.5,0.5-0.6,1.1-0.5,1.7c-0.3,0.1-0.5,0.3-0.8,0.5c-0.5,0.5-1.2,1.4-1.2,2.9
	c0,1.5,0.6,2.5,1.1,3.1c0.5,0.7,0.8,1.2,0.8,2.5c0,1.5-0.6,2.6-7.9,3.8c-5,0.8-16.7,5-16.7,9.4c0,1,0.8,2,1.9,2c1,0,1.9-0.7,1.9-1.7
	c0.7-1.3,7.4-5,13.6-6c4.7-0.8,11-1.8,11-7.5c0-2.5-0.9-3.8-1.4-4.6c-0.4-0.6-0.5-0.7-0.7-1.1c1,0.1,2-0.6,2.1-1.6
	c0-0.4-0.1-0.8-0.2-1.1l1.6-1.6c0.5-0.5,0.7-1.3,0.5-1.9l-1.3-3.8C94,71.1,97,69.6,97,66.8z"/>
<polygon fill="#FFFFFF" points="32.4,29 38.3,59.7 61.6,72.2 76.9,69.2 79.6,58.2 72.6,32.2 47.9,21.6 "/>
</svg>
