<?xml version="1.0" encoding="utf-8"?>
<!-- Generator: Adobe Illustrator 18.1.0, SVG Export Plug-In . SVG Version: 6.00 Build 0)  -->
<svg version="1.1" id="Calque_1" xmlns="http://www.w3.org/2000/svg" xmlns:xlink="http://www.w3.org/1999/xlink" x="0px" y="0px"
	 viewBox="49 115.6 746 754" enable-background="new 49 115.6 746 754" xml:space="preserve">
<g>
	<g>
		<path d="M420.9,644.1c27.8,0,52.2-16,64-39.6H357C368.7,628.1,393.2,644.1,420.9,644.1z"/>
		<path d="M349.4,572.5c0,0.8,0,1.7,0,2.5h144c0-0.8,0-1.7,0-2.5v-31.1h-144V572.5z"/>
		<rect x="349.4" y="479.1" width="144" height="32.8"/>
		<path d="M319.1,442.1L240,545.7c-16,21.9-12.6,52.2,9.3,69c21.9,16,52.2,12.6,69-9.3l5.1-6.7c-2.5-8.4-3.4-17.7-3.4-26.9V442.1
			H319.1z"/>
		<path d="M420.9,136.4C225.6,136.4,67.4,294.7,67.4,490S225.7,843.6,421,843.6S774.5,685.4,774.5,490S616.3,136.4,420.9,136.4z
			 M607.8,634.8c-13.5,10.1-29.5,15.2-44.6,15.2c-20.2,0-40.4-8.4-55.6-24.4c-13.5,22.7-36.2,39.6-62.3,46.3l-24.4,28.6l-23.6-28.6
			c-26.9-5.9-50.5-23.6-64.8-47.1c-13.5,16.8-33.7,25.3-53.9,25.3c-16,0-31.1-5.1-44.6-15.2c-32.8-24.4-38.7-71.6-14.3-103.6
			l106.9-139.8c9.3-21.9,26.1-39.6,46.3-50.5c-4.2-7.6-9.3-16.8-14.3-21c-5.1-4.2-5.9-12.6-0.8-17.7c4.2-5.1,12.6-5.9,17.7-0.8
			c8.4,7.6,16.8,21.9,21,31.1c7.6-1.7,16-3.4,23.6-3.4c6.7,0,13.5,0.8,20.2,1.7c4.2-8.4,11.8-22.7,20.2-30.3
			c5.1-4.2,12.6-4.2,17.7,0.8c4.2,5.1,4.2,12.6-0.8,17.7c-4.2,3.4-9.3,11.8-13.5,19.4c21.9,10.9,40.4,29.5,49.7,52.2l106.9,139.8
			C646.6,563.3,640.7,609.6,607.8,634.8z"/>
		<path d="M522.8,442.1v130.5c0,9.3-1.7,17.7-3.4,26.9l5.1,6.7c16.8,21.9,47.1,25.3,69,9.3c21.9-16.8,26.1-47.1,9.3-69L522.8,442.1z
			"/>
		<path d="M420.9,357.9c-39.6,0-71.6,32-71.6,71.6v19.4h144v-19.4C492.5,389.9,460.5,357.9,420.9,357.9z"/>
	</g>
</g>
</svg>
